<mxfile host="65bd71144e">
    <diagram id="-dR6ItGvmSW57ZayP2ZQ" name="Page-1">
        <mxGraphModel dx="746" dy="1453" grid="1" gridSize="10" guides="1" tooltips="1" connect="1" arrows="1" fold="1" page="1" pageScale="1" pageWidth="850" pageHeight="1100" math="0" shadow="0">
            <root>
                <mxCell id="0"/>
                <mxCell id="1" parent="0"/>
                <mxCell id="4" style="edgeStyle=none;html=1;fontSize=20;fontColor=#FFFF99;" edge="1" parent="1" source="2">
                    <mxGeometry relative="1" as="geometry">
                        <mxPoint x="395" y="-90" as="targetPoint"/>
                    </mxGeometry>
                </mxCell>
                <mxCell id="2" value="Unknown" style="rounded=1;whiteSpace=wrap;html=1;fontSize=20;labelBackgroundColor=none;labelBorderColor=none;fontColor=#FFFF99;" vertex="1" parent="1">
                    <mxGeometry x="320" y="-160" width="150" height="40" as="geometry"/>
                </mxCell>
                <mxCell id="5" value="" style="endArrow=none;html=1;fontSize=20;fontColor=#FFFF99;" edge="1" parent="1">
                    <mxGeometry width="50" height="50" relative="1" as="geometry">
                        <mxPoint x="20" y="-90" as="sourcePoint"/>
                        <mxPoint x="670" y="-90" as="targetPoint"/>
                    </mxGeometry>
                </mxCell>
                <mxCell id="7" value="" style="rounded=1;whiteSpace=wrap;html=1;labelBackgroundColor=none;labelBorderColor=none;fontSize=20;fontColor=#FFFF99;" vertex="1" parent="1">
                    <mxGeometry x="10" y="-50" width="120" height="60" as="geometry"/>
                </mxCell>
            </root>
        </mxGraphModel>
    </diagram>
</mxfile>